<svg id="Group_73825" data-name="Group 73825" xmlns="http://www.w3.org/2000/svg" width="26.005" height="28.894" viewBox="0 0 26.005 28.894">
  <path id="Path_1425" data-name="Path 1425" d="M7,11H9.889v2.889H7Zm0,5.779H9.889v2.889H7ZM12.779,11h2.889v2.889H12.779Zm0,5.779h2.889v2.889H12.779ZM18.558,11h2.889v2.889H18.558Zm0,5.779h2.889v2.889H18.558Z" transform="translate(-1.221 2.002)" fill="#989898"/>
  <path id="Path_1426" data-name="Path 1426" d="M5.889,30.894H26.115A2.892,2.892,0,0,0,29,28V7.779a2.892,2.892,0,0,0-2.889-2.889H23.226V2H20.336V4.889H11.668V2H8.779V4.889H5.889A2.892,2.892,0,0,0,3,7.779V28A2.892,2.892,0,0,0,5.889,30.894ZM26.115,10.668V28H5.889V10.668Z" transform="translate(-3 -2)" fill="#989898"/>
</svg>
