<svg xmlns="http://www.w3.org/2000/svg" xmlns:xlink="http://www.w3.org/1999/xlink" width="85.842" height="38.3" viewBox="0 0 85.842 38.3">
  <defs>
    <clipPath id="clip-path">
      <rect id="Rectangle_1837" data-name="Rectangle 1837" width="85.842" height="38.3" transform="translate(-14 -6)" fill="none" stroke="#707070" stroke-width="2"/>
    </clipPath>
  </defs>
  <g id="Group_73806" data-name="Group 73806" transform="translate(-296.079 -107.066)">
    <g id="Group_73805" data-name="Group 73805" transform="translate(310.079 113.066)" clip-path="url(#clip-path)">
      <path id="Path_1482" data-name="Path 1482" d="M135.347,14.385V25.158a.98.98,0,0,1-.98.98H87.736a.98.98,0,0,1-.98-.98V2.979a.98.98,0,0,1,.98-.98h31.723a.98.98,0,0,1,.98.98v4.8h9.867a.98.98,0,0,1,.8.407l4.059,5.63a.981.981,0,0,1,.185.573" transform="translate(-73.751 -3.382)" fill="#fff" stroke="#707070" stroke-width="2"/>
      <path id="Path_1483" data-name="Path 1483" d="M135.347,14.385V25.158a.98.98,0,0,1-.98.98H87.736a.98.98,0,0,1-.98-.98V2.979a.98.98,0,0,1,.98-.98h31.723a.98.98,0,0,1,.98.98v4.8h9.867a.98.98,0,0,1,.8.407l4.059,5.63A.981.981,0,0,1,135.347,14.385Z" transform="translate(-73.751 -3.382)" fill="#f7b01c" stroke="#000" stroke-width="2"/>
      <line id="Line_123" data-name="Line 123" y2="19.234" transform="translate(46.689 3.536)" fill="#fff" stroke="#707070" stroke-width="2"/>
      <line id="Line_124" data-name="Line 124" y2="19.234" transform="translate(46.689 3.536)" fill="none" stroke="#000" stroke-width="2"/>
      <path id="Path_1484" data-name="Path 1484" d="M125.124,103.155a5.029,5.029,0,1,1-5.029-5.029,5.029,5.029,0,0,1,5.029,5.029" transform="translate(-96.462 -80.502)" fill="#fff" stroke="#707070" stroke-width="2"/>
      <circle id="Ellipse_15" data-name="Ellipse 15" cx="5.029" cy="5.029" r="5.029" transform="translate(18.603 17.624)" fill="none" stroke="#000" stroke-width="2"/>
      <path id="Path_1485" data-name="Path 1485" d="M266.776,103.155a5.029,5.029,0,1,1-5.029-5.029,5.029,5.029,0,0,1,5.029,5.029" transform="translate(-210.105 -80.502)" fill="#fff" stroke="#707070" stroke-width="2"/>
      <circle id="Ellipse_16" data-name="Ellipse 16" cx="5.029" cy="5.029" r="5.029" transform="translate(46.612 17.624)" fill="none" stroke="#000" stroke-width="2"/>
      <line id="Line_125" data-name="Line 125" x1="12.534" transform="translate(-3.655 -0.971)" fill="#fff" stroke="#707070" stroke-width="2"/>
      <line id="Line_126" data-name="Line 126" x1="12.534" transform="translate(-3.655 -0.971)" fill="none" stroke="#000" stroke-linecap="round" stroke-width="2"/>
      <line id="Line_127" data-name="Line 127" x1="10.007" transform="translate(-1.128 4.342)" fill="#fff" stroke="#707070" stroke-width="2"/>
      <line id="Line_128" data-name="Line 128" x1="10.007" transform="translate(-1.128 4.342)" fill="none" stroke="#000" stroke-linecap="round" stroke-width="2"/>
      <line id="Line_129" data-name="Line 129" x1="7.067" transform="translate(1.813 9.758)" fill="#fff" stroke="#707070" stroke-width="2"/>
      <line id="Line_130" data-name="Line 130" x1="7.067" transform="translate(1.813 9.758)" fill="none" stroke="#000" stroke-linecap="round" stroke-width="2"/>
      <line id="Line_131" data-name="Line 131" x1="3.765" transform="translate(5.114 15.226)" fill="#fff" stroke="#707070" stroke-width="2"/>
      <line id="Line_132" data-name="Line 132" x1="3.765" transform="translate(5.114 15.226)" fill="none" stroke="#000" stroke-linecap="round" stroke-width="2"/>
    </g>
  </g>
</svg>
