<svg xmlns="http://www.w3.org/2000/svg" xmlns:xlink="http://www.w3.org/1999/xlink" width="44.731" height="40.649" viewBox="0 0 44.731 40.649">
  <defs>
    <clipPath id="clip-path">
      <rect id="Rectangle_1793" data-name="Rectangle 1793" width="44.731" height="40.649" transform="translate(0 0)" fill="none" stroke="#373737" stroke-width="1"/>
    </clipPath>
  </defs>
  <g id="Group_73703" data-name="Group 73703" transform="translate(0 0)">
    <g id="Group_73702" data-name="Group 73702" clip-path="url(#clip-path)">
      <path id="Path_1414" data-name="Path 1414" d="M13.182,3.029c0,3.164,0,6.658,0,9.865-2.306.251-5.667-.185-6.749-2.239-.023-.043-.048-.075-.071-.117v-5c1.1-1.929,4.505-2.374,7.974-1.413" fill="none" stroke="#373737" stroke-width="3"/>
      <path id="Path_1415" data-name="Path 1415" d="M19.716,1.5q10.77.022,21.541,0c1.413,0,2,.633,1.972,2.054q-.085,4.471,0,8.946c.031,1.514-.585,2.136-2.083,2.081-1.616-.06-3.235-.014-5-.014.7,2.649,1.546,6.027,2.2,8.505H29.806c-.159-.647-.579-2.269-.813-2.893l-1.074-4.141a2.927,2.927,0,0,0-3.137-1.5c-1.692.132-3.4-.009-5.1.041-1.365.039-1.94-.586-1.933-1.911q.024-4.63,0-9.263c-.011-1.359.654-1.9,1.967-1.9" fill="none" stroke="#373737" stroke-width="3"/>
      <path id="Path_1416" data-name="Path 1416" d="M31.971,39.148c2.131,0,4.261-.009,6.392,0,1.316.008,1.945-.573,1.922-1.941q-.064-3.837,0-7.676c.023-1.336-.529-2-1.873-2q-6.552.007-13.1,0A1.63,1.63,0,0,0,23.459,28.9a1.611,1.611,0,0,0,0,.5c.006,2.612.014,5.224,0,7.837-.009,1.349.643,1.929,1.965,1.913,2.184-.025,4.368-.007,6.552-.007" fill="none" stroke="#373737" stroke-width="3"/>
      <path id="Path_1417" data-name="Path 1417" d="M5.6,9.084H2.05a1.05,1.05,0,1,1,0-2.1H5.6" fill="none" stroke="#373737" stroke-width="1"/>
      <path id="Path_1418" data-name="Path 1418" d="M5.6,9.084H2.05a1.05,1.05,0,1,1,0-2.1H5.6" fill="none" stroke="#373737" stroke-width="2"/>
    </g>
  </g>
</svg>
