<svg xmlns="http://www.w3.org/2000/svg" width="352.46" height="120.796" viewBox="0 0 352.46 120.796">
  <g id="ERPATECH_logo" transform="translate(0 0)">
    <path id="Path_1" data-name="Path 1" d="M26.538,0,20.4,32.822,189.427,31.6l.174-1.131Z" transform="translate(-11.52 0)" fill="#f7b01c"/>
    <path id="Path_2" data-name="Path 2" d="M397.4,204l165.282,30.863L568.82,202l-171.2.828Z" transform="translate(-224.412 -114.069)" fill="#f7b01c"/>
    <path id="Path_3" data-name="Path 3" d="M7.574,89.64,0,132.953l36.13-.086,1.742-10.056h-21.9l1.131-6.787h17.8l1.828-10.1H18.893L20.024,99.7l20.981-.043L42.833,89.6Z" transform="translate(0 -50.595)" fill="#f9f9f9"/>
    <g id="Group_1" data-name="Group 1" transform="translate(42.485 37.477)">
      <path id="Path_4" data-name="Path 4" d="M144.671,262.895c-.305,2.787-2.611,4.179-7.013,4.179h-6.007l1.523-8.576h6.787a7.238,7.238,0,0,1,2.525.479,4.05,4.05,0,0,1,1.828,1.568,2.959,2.959,0,0,1,.391,1.611Zm11.312,3.439a16.019,16.019,0,0,0,2.351-8.62,7.825,7.825,0,0,0-3.57-6.92c-2.394-1.611-6.7-2.394-13.058-2.394H120.768L113.2,291.756h14.192l2.656-15.106h2.09a23.555,23.555,0,0,1,6.835.654c1.219.434,1.828,1.654,1.828,3.62,0,.654-.174,2.262-.48,4.875a42.642,42.642,0,0,0-.348,4.7l.086,1.263h14.278l.226-1.262c-.7,0-1.088-.434-1.219-1.305l.523-2.959.566-3.353a35.4,35.4,0,0,0,.348-4.267,6.853,6.853,0,0,0-1.219-4.7,13.468,13.468,0,0,0-4.525-2.568A11.362,11.362,0,0,0,156,266.429" transform="translate(-113.2 -246.96)" fill="#f9f9f9"/>
      <path id="Path_5" data-name="Path 5" d="M248.758,266.356a6.963,6.963,0,0,1-4.615,1.568h-6.095l1.785-9.62h4.174c4.4-.043,6.572,1.219,6.572,3.744a5.355,5.355,0,0,1-1.828,4.267m13.755-12.841a10.38,10.38,0,0,0-5.355-3.961,26.746,26.746,0,0,0-9.049-1.305H227.381l-7.581,43.31h14.192l2.308-13.538h7.269c11.667,0,18.5-4.875,20.361-14.583.131-.654.226-1.262.305-1.871a11.958,11.958,0,0,0,.088-1.742,10.881,10.881,0,0,0-1.828-6.312" transform="translate(-173.397 -246.853)" fill="#f9f9f9"/>
      <path id="Path_6" data-name="Path 6" d="M323.778,276.655l7.183-15.5,1.785,15.5ZM340.537,248.1H326.085L303.1,291.413h13.8l2.568-5.789H333.66l.74,5.789H348.46Z" transform="translate(-220.436 -246.791)" fill="#f9f9f9"/>
      <path id="Path_7" data-name="Path 7" d="M399.459,89.043,439.114,89l-2,11.4H424.356l-5.529,31.9H404.592l5.577-31.856H397.5Z" transform="translate(-266.953 -87.734)" fill="#f9f9f9"/>
      <path id="Path_8" data-name="Path 8" d="M498.135,88.843l35.293-.043L531.6,98.9l-21.024.043-1.131,6.224h17.891l-1.828,10.056-17.848.043-1.131,6.787,21.9-.043-1.7,10.1-36.13.043Z" transform="translate(-319.532 -87.622)" fill="#f9f9f9"/>
      <path id="Path_9" data-name="Path 9" d="M637.34,262.767v-1a5.473,5.473,0,0,0-1.828-4.658,8.533,8.533,0,0,0-4.7-1.437,7.889,7.889,0,0,0-6.747,3.57,21.371,21.371,0,0,0-3.439,8.968c-.131.74-.305,2.219-.479,4.441,0,5.007,2.262,7.486,6.878,7.486s6.92-2.437,8.619-7.4h13.624a26.563,26.563,0,0,1-4.789,9.185,21.575,21.575,0,0,1-3.7,3.744,22.822,22.822,0,0,1-4.484,2.742,24.372,24.372,0,0,1-10.708,2.308,20.814,20.814,0,0,1-14.321-4.57,15.575,15.575,0,0,1-3.961-5.529A20.02,20.02,0,0,1,606,273.346l.479-5.093a28.01,28.01,0,0,1,5.529-13.1,25.467,25.467,0,0,1,9.534-7.66,24.812,24.812,0,0,1,10.273-2.394h.435a28.683,28.683,0,0,1,6.746.7,18.72,18.72,0,0,1,5.224,2.09,12.516,12.516,0,0,1,5.487,6.486,26.11,26.11,0,0,1,1.088,7.574v.828Z" transform="translate(-391.486 -245.092)" fill="#f9f9f9"/>
      <path id="Path_10" data-name="Path 10" d="M703.974,88.547h14.192l-2.57,14.662,13.452-.043L731.616,88.5h14.1l-7.574,43.313h-14.06l2.873-16.759h-13.45l-2.916,16.8H696.4Z" transform="translate(-435.744 -87.457)" fill="#f9f9f9"/>
    </g>
  </g>
</svg>
