<svg xmlns="http://www.w3.org/2000/svg" xmlns:xlink="http://www.w3.org/1999/xlink" width="33.902" height="40.768" viewBox="0 0 33.902 40.768">
  <defs>
    <clipPath id="clip-path">
      <rect id="Rectangle_1838" data-name="Rectangle 1838" width="33.902" height="40.768" transform="translate(-3 -3)" fill="none"/>
    </clipPath>
  </defs>
  <g id="Group_73808" data-name="Group 73808" transform="translate(3 3)">
    <g id="Mask_Group_73807" data-name="Mask Group 73807" transform="translate(0 0)" clip-path="url(#clip-path)">
      <path id="Path_1486" data-name="Path 1486" d="M11.623,29.057l8.391-10.489a11.428,11.428,0,0,0,2.506-7.14V10.9a10.9,10.9,0,1,0-21.794,0v.531a11.428,11.428,0,0,0,2.506,7.14m8.391-4.04A3.633,3.633,0,1,0,7.992,10.9a3.631,3.631,0,0,0,3.631,3.631" transform="translate(2.332 -0.002)" fill="#f25050" stroke="#000" stroke-width="2" fill-rule="evenodd"/>
      <path id="Path_1487" data-name="Path 1487" d="M20.57,6.072c3.315.826,5.48,2.19,5.48,3.736,0,2.523-5.775,4.57-12.9,4.57S.25,12.331.25,9.808c0-1.575,2.258-2.965,5.691-3.787" transform="translate(0.803 20.339)" fill="none" stroke="#030708" stroke-linecap="round" stroke-width="2"/>
      <path id="Path_1488" data-name="Path 1488" d="M5.286,18.213l8.729,10.781,1.469-1.875" fill="none" stroke="#000" stroke-width="2"/>
    </g>
  </g>
</svg>
