<svg xmlns="http://www.w3.org/2000/svg" width="84.2" height="74.741" viewBox="0 0 84.2 74.741">
  <g id="Group_73706" data-name="Group 73706" transform="translate(-5.548 -5.548)">
    <path id="Path_1338" data-name="Path 1338" d="M79.7,49.863V68.786L48.158,81.4,16.621,68.786V49.863" transform="translate(-0.511 -2.215)" fill="none" stroke="#373737" stroke-linecap="round" stroke-linejoin="round" stroke-width="2.2"/>
    <path id="Path_1339" data-name="Path 1339" d="M16.621,29.239,48.159,16.621,79.7,29.239,48.158,41.858Z" transform="translate(-0.511 -0.511)" fill="none" stroke="#373737" stroke-linecap="round" stroke-linejoin="round" stroke-width="2.2"/>
    <path id="Path_1340" data-name="Path 1340" d="M47.647,16.11,38.186,6.648,6.648,19.266l9.462,9.462" fill="none" stroke="#373737" stroke-linecap="round" stroke-linejoin="round" stroke-width="2.2"/>
    <path id="Path_1341" data-name="Path 1341" d="M49.863,16.11l9.462-9.462L90.862,19.266,81.4,28.728" transform="translate(-2.215)" fill="none" stroke="#373737" stroke-linecap="round" stroke-linejoin="round" stroke-width="2.2"/>
    <path id="Path_1342" data-name="Path 1342" d="M16.11,29.918,6.648,42.536,38.186,55.155l9.462-12.618" transform="translate(0 -1.193)" fill="none" stroke="#373737" stroke-linecap="round" stroke-linejoin="round" stroke-width="2.2"/>
    <path id="Path_1343" data-name="Path 1343" d="M81.4,29.918l9.462,12.618L59.325,55.155,49.863,42.536" transform="translate(-2.215 -1.193)" fill="none" stroke="#373737" stroke-linecap="round" stroke-linejoin="round" stroke-width="2.2"/>
  </g>
</svg>
