<svg xmlns="http://www.w3.org/2000/svg" xmlns:xlink="http://www.w3.org/1999/xlink" width="54.018" height="59.78" viewBox="0 0 54.018 59.78">
  <defs>
    <clipPath id="clip-path">
      <rect id="Rectangle_1777" data-name="Rectangle 1777" width="54.018" height="59.78" transform="translate(0 0)" fill="none" stroke="#373737" stroke-width="2.2"/>
    </clipPath>
  </defs>
  <g id="Group_73705" data-name="Group 73705" transform="translate(0 -3)">
    <g id="Group_73687" data-name="Group 73687" transform="translate(0 3)" clip-path="url(#clip-path)">
      <path id="Path_1344" data-name="Path 1344" d="M52.518,42.991v-26.2a2.153,2.153,0,0,0-1.094-1.86L28.046,1.778a2.074,2.074,0,0,0-2.073,0L2.59,14.931a2.152,2.152,0,0,0-1.09,1.86v26.2A2.155,2.155,0,0,0,2.59,44.85L25.973,58a2.074,2.074,0,0,0,2.073,0L51.424,44.85A2.154,2.154,0,0,0,52.518,42.991Z" fill="none" stroke="#373737" stroke-linecap="round" stroke-linejoin="round" stroke-width="2.2"/>
      <path id="Path_1345" data-name="Path 1345" d="M40.029,36.4V22.589L14.255,8.366" fill="none" stroke="#373737" stroke-linecap="round" stroke-linejoin="round" stroke-width="2.2"/>
      <path id="Path_1346" data-name="Path 1346" d="M52.226,15.7,27.247,29.892,1.794,15.7" fill="none" stroke="#373737" stroke-linecap="round" stroke-linejoin="round" stroke-width="2.2"/>
      <line id="Line_80" data-name="Line 80" x1="0.239" y2="28.379" transform="translate(27.008 29.892)" fill="none" stroke="#373737" stroke-linecap="round" stroke-linejoin="round" stroke-width="2.2"/>
    </g>
  </g>
</svg>
