<svg xmlns="http://www.w3.org/2000/svg" width="25.433" height="25.433" viewBox="0 0 25.433 25.433">
  <g id="Group_73827" data-name="Group 73827" transform="translate(-46.283)">
    <g id="Path_1473" data-name="Path 1473" transform="matrix(0.017, 1, -1, 0.017, 71.279, 0)" fill="none" stroke-linecap="round" stroke-dasharray="60 1000">
      <path d="M12.5,0A12.5,12.5,0,1,0,25,12.5,12.5,12.5,0,0,0,12.5,0Z" stroke="none"/>
      <path d="M 12.5 0 C 19.40356063842773 0 25 5.596439361572266 25 12.5 C 25 19.40356063842773 19.40356063842773 25 12.5 25 C 5.596439361572266 25 0 19.40356063842773 0 12.5 C 0 12.49705028533936 1.9073486328125e-06 12.49350643157959 3.814697265625e-06 12.49055767059326 C 3.814697265625e-06 12.48959636688232 5.7220458984375e-06 12.48860836029053 7.62939453125e-06 12.48764801025391 C 9.5367431640625e-06 12.48554134368896 1.1444091796875e-05 12.48319721221924 1.52587890625e-05 12.48109149932861 C 1.71661376953125e-05 12.47992897033691 1.9073486328125e-05 12.47874736785889 2.09808349609375e-05 12.4775857925415 C 2.47955322265625e-05 12.47548007965088 2.6702880859375e-05 12.47364807128906 3.24249267578125e-05 12.47154235839844 C 3.4332275390625e-05 12.47035884857178 3.814697265625e-05 12.46921348571777 4.00543212890625e-05 12.4680290222168 C 4.57763671875e-05 12.46592330932617 5.14984130859375e-05 12.46399784088135 5.7220458984375e-05 12.46189308166504 C 6.103515625e-05 12.46073150634766 6.4849853515625e-05 12.45960235595703 6.866455078125e-05 12.45844078063965 C 7.62939453125e-05 12.45591449737549 8.392333984375e-05 12.45381355285645 9.34600830078125e-05 12.4512882232666 C 9.72747802734375e-05 12.4505729675293 9.918212890625e-05 12.44982624053955 0.0001010894775390625 12.44911193847656 C 0.00011444091796875 12.44574356079102 0.0001277923583984375 12.44296836853027 0.0001430511474609375 12.43960094451904 C 0.00014495849609375 12.43904304504395 0.000148773193359375 12.43849945068359 0.0001506805419921875 12.4379415512085 C 0.000164031982421875 12.43541622161865 0.000179290771484375 12.43253231048584 0.0001926422119140625 12.430006980896 C 0.0001964569091796875 12.42906951904297 0.000202178955078125 12.42818546295166 0.0002079010009765625 12.42724704742432 C 0.0002193450927734375 12.42514324188232 0.0002346038818359375 12.42280769348145 0.0002460479736328125 12.42070388793945 C 0.0002536773681640625 12.41952037811279 0.0002613067626953125 12.41836452484131 0.0002689361572265625 12.41718196868896 C 0.0002803802490234375 12.41549873352051 0.0002994537353515625 12.41269111633301 0.0003108978271484375 12.41100883483887 C 0.0003185272216796875 12.40991497039795 0.0003261566162109375 12.40880584716797 0.0003337860107421875 12.40771293640137 C 0.0003528594970703125 12.40518856048584 0.0003662109375 12.40336608886719 0.000385284423828125 12.40084266662598 C 0.000392913818359375 12.40001678466797 0.0003986358642578125 12.39915943145752 0.00040435791015625 12.39833354949951 C 0.0004558563232421875 12.3920259475708 0.0005130767822265625 12.38539409637451 0.00057220458984375 12.37908744812012 C 0.0005779266357421875 12.37855243682861 0.000583648681640625 12.37800979614258 0.0005893707275390625 12.37747478485107 C 0.0006122589111328125 12.37495231628418 0.000640869140625 12.37212944030762 0.0006656646728515625 12.36960792541504 C 0.000675201416015625 12.36876010894775 0.0006847381591796875 12.3678617477417 0.00069427490234375 12.36701393127441 C 0.0007190704345703125 12.36449146270752 0.0007419586181640625 12.36244487762451 0.0007686614990234375 12.35992336273193 C 0.0007781982421875 12.35903072357178 0.000789642333984375 12.35813808441162 0.0007991790771484375 12.35724639892578 C 0.000827789306640625 12.3547248840332 0.0008525848388671875 12.3525390625 0.000881195068359375 12.35001754760742 C 0.0008907318115234375 12.3492374420166 0.0009002685546875 12.34850025177002 0.0009098052978515625 12.3477201461792 C 0.00093841552734375 12.34519863128662 0.0009765625 12.34219837188721 0.001007080078125 12.33967781066895 C 0.00101470947265625 12.33914279937744 0.001020431518554687 12.33863735198975 0.001028060913085937 12.33810234069824 C 0.001111984252929687 12.33138084411621 0.001192092895507812 12.32546615600586 0.001287460327148437 12.31874752044678 C 0.0012969970703125 12.31814575195312 0.00130462646484375 12.31754302978516 0.001314163208007812 12.3169412612915 C 0.00135040283203125 12.31442165374756 0.001390457153320312 12.31160259246826 0.001428604125976562 12.30908298492432 C 0.001440048217773437 12.30834865570068 0.001451492309570312 12.30760765075684 0.001462936401367187 12.30687236785889 C 0.001501083374023437 12.30435371398926 0.001537322998046875 12.30190181732178 0.001577377319335937 12.29938316345215 C 0.001588821411132812 12.29862594604492 0.001600265502929687 12.29789447784424 0.001613616943359375 12.29713726043701 C 0.001653671264648437 12.29461860656738 0.00170135498046875 12.2916374206543 0.001743316650390625 12.28911972045898 C 0.001750946044921875 12.28862953186035 0.001760482788085937 12.2880859375 0.001768112182617187 12.28759670257568 C 0.001935958862304687 12.2775239944458 0.002101898193359375 12.26825904846191 0.002292633056640625 12.25819206237793 C 0.002300262451171875 12.25781345367432 0.002305984497070312 12.2574348449707 0.002313613891601562 12.25705718994141 C 0.002361297607421875 12.25454044342041 0.002431869506835937 12.25095272064209 0.002481460571289062 12.24843692779541 C 0.002490997314453125 12.24796962738037 0.002500534057617187 12.24748992919922 0.00251007080078125 12.24702262878418 C 0.002559661865234375 12.2445068359375 0.00263214111328125 12.24087715148926 0.002683639526367187 12.23836135864258 C 0.002691268920898437 12.23800563812256 0.002698898315429687 12.23765659332275 0.002706527709960937 12.23729991912842 C 0.002981185913085937 12.2238826751709 0.003265380859375 12.211106300354 0.003583908081054687 12.19769859313965 C 0.003589630126953125 12.19749927520752 0.00359344482421875 12.19729709625244 0.003599166870117187 12.197096824646 C 0.0036773681640625 12.19374561309814 0.0037384033203125 12.19121170043945 0.003820419311523437 12.1878604888916 C 0.003828048706054687 12.18757152557373 0.003835678100585937 12.18728733062744 0.003843307495117187 12.18699836730957 C 0.003925323486328125 12.18364715576172 0.003992080688476562 12.180983543396 0.004076004028320312 12.17763328552246 C 0.004079818725585937 12.17749977111816 0.00408172607421875 12.17737579345703 0.004085540771484375 12.17724227905273 C 0.00977325439453125 11.95276355743408 0.02136611938476562 11.7299861907959 0.03874015808105469 11.50859928131104 C 0.03874588012695312 11.5085334777832 0.03874778747558594 11.50849056243896 0.03875350952148438 11.50842475891113 C 0.03979110717773438 11.49520778656006 0.04080581665039062 11.48253440856934 0.04188346862792969 11.46932888031006 C 0.04192161560058594 11.46886920928955 0.04195785522460938 11.46842384338379 0.04199409484863281 11.46796417236328 C 0.04219627380371094 11.46548843383789 0.04243278503417969 11.46262168884277 0.04263687133789062 11.46014595031738 C 0.04270172119140625 11.45935821533203 0.04276847839355469 11.45855331420898 0.04283332824707031 11.45776462554932 C 0.04303741455078125 11.45528984069824 0.0432281494140625 11.45297813415527 0.04343414306640625 11.45050239562988 C 0.04349708557128906 11.44975852966309 0.04355430603027344 11.44905853271484 0.04361534118652344 11.44831466674805 C 0.0438232421875 11.44583988189697 0.04406166076660156 11.44297313690186 0.04426956176757812 11.44049835205078 C 0.04431533813476562 11.43995094299316 0.04436492919921875 11.43936634063721 0.04441070556640625 11.43881988525391 C 0.04468727111816406 11.43552017211914 0.04492568969726562 11.43270301818848 0.04520606994628906 11.42940425872803 C 0.04524803161621094 11.42890167236328 0.04528999328613281 11.42841529846191 0.04533195495605469 11.42791271209717 C 0.04554367065429688 11.42543888092041 0.04575920104980469 11.42289257049561 0.04597091674804688 11.42041873931885 C 0.04608535766601562 11.4190845489502 0.04620170593261719 11.41773319244385 0.04631614685058594 11.4163990020752 C 0.04645729064941406 11.41475009918213 0.04651641845703125 11.41406440734863 0.04665946960449219 11.41241550445557 C 0.09427261352539062 10.86237049102783 0.5786685943603516 10.45498275756836 1.128759384155273 10.50238037109375 C 1.679010391235352 10.54979038238525 2.086639404296875 11.03427982330322 2.039239883422852 11.58452987670898 C 2.013200759887695 11.88673973083496 2 12.19474983215332 2 12.5 C 2 18.28972053527832 6.71027946472168 23 12.5 23 C 18.28972053527832 23 23 18.28972053527832 23 12.5 C 23 6.71027946472168 18.28972053527832 2 12.5 2 C 11.94771003723145 2 11.5 1.552280426025391 11.5 1 C 11.5 0.4477100372314453 11.94771003723145 0 12.5 0 C 12.5 0 12.5 0 12.5 0 Z" stroke="none" fill="#f7b01c"/>
    </g>
    <g id="Group_73796" data-name="Group 73796" transform="translate(46.5 0.217)">
      <line id="Line_102" data-name="Line 102" y2="11" transform="translate(12.762 7.5)" fill="none" stroke="#f7b01c" stroke-linecap="round" stroke-width="2.5"/>
      <line id="Line_103" data-name="Line 103" y2="11" transform="translate(18.262 13) rotate(90)" fill="none" stroke="#f7b01c" stroke-linecap="round" stroke-width="2.5"/>
    </g>
  </g>
</svg>
